<?xml version="1.0" standalone="no"?><svg xmlns="http://www.w3.org/2000/svg" viewBox="0 0 1440 320"><path fill="#d2691e" fill-opacity="1" d="M0,32L26.7,26.7C53.3,21,107,11,160,21.3C213.3,32,267,64,320,112C373.3,160,427,224,480,234.7C533.3,245,587,203,640,192C693.3,181,747,203,800,186.7C853.3,171,907,117,960,117.3C1013.3,117,1067,171,1120,176C1173.3,181,1227,139,1280,112C1333.3,85,1387,75,1413,69.3L1440,64L1440,0L1413.3,0C1386.7,0,1333,0,1280,0C1226.7,0,1173,0,1120,0C1066.7,0,1013,0,960,0C906.7,0,853,0,800,0C746.7,0,693,0,640,0C586.7,0,533,0,480,0C426.7,0,373,0,320,0C266.7,0,213,0,160,0C106.7,0,53,0,27,0L0,0Z"></path></svg>