            <svg class = middle-wave xmlns ="http://www.w3.org/2000/svg" viewBox="0 0 1440 320"><path fill="#8B4513" fill-opacity="1" d="M0,64L26.7,85.3C53.3,107,107,149,160,144C213.3,139,267,85,320,80C373.3,75,427,117,480,149.3C533.3,181,587,203,640,197.3C693.3,192,747,160,800,133.3C853.3,107,907,85,960,106.7C1013.3,128,1067,192,1120,197.3C1173.3,203,1227,149,1280,117.3C1333.3,85,1387,75,1413,69.3L1440,64L1440,0L1413.3,0C1386.7,0,1333,0,1280,0C1226.7,0,1173,0,1120,0C1066.7,0,1013,0,960,0C906.7,0,853,0,800,0C746.7,0,693,0,640,0C586.7,0,533,0,480,0C426.7,0,373,0,320,0C266.7,0,213,0,160,0C106.7,0,53,0,27,0L0,0Z"></path></svg>
